<svg width="20" height="20" viewBox="0 0 20 20" fill="none" xmlns="http://www.w3.org/2000/svg">
<g id="Library">
<g id="icon">
<path fill-rule="evenodd" clip-rule="evenodd" d="M1.875 6.25C1.875 4.17893 3.55393 2.5 5.625 2.5C7.69607 2.5 9.375 4.17893 9.375 6.25C9.375 8.32107 7.69607 10 5.625 10C3.55393 10 1.875 8.32107 1.875 6.25ZM5.625 3.75C4.24429 3.75 3.125 4.86929 3.125 6.25C3.125 7.63071 4.24429 8.75 5.625 8.75C7.00571 8.75 8.125 7.63071 8.125 6.25C8.125 4.86929 7.00571 3.75 5.625 3.75Z" fill="#F5F5F5"/>
<path d="M6.25 11.25V13.75H8.75V15H6.25V17.5H5V15H2.5V13.75H5V11.25H6.25Z" fill="#F5F5F5"/>
<path fill-rule="evenodd" clip-rule="evenodd" d="M12.5 11.25C11.8096 11.25 11.25 11.8096 11.25 12.5V16.25C11.25 16.9404 11.8096 17.5 12.5 17.5H16.25C16.9404 17.5 17.5 16.9404 17.5 16.25V12.5C17.5 11.8096 16.9404 11.25 16.25 11.25H12.5ZM12.5 16.25V12.5H16.25V16.25H12.5Z" fill="#F5F5F5"/>
<path fill-rule="evenodd" clip-rule="evenodd" d="M15.4724 3.20664C14.9986 2.33806 13.7514 2.33806 13.2776 3.20664L10.5805 8.15144C10.1261 8.9844 10.729 10 11.6778 10H17.0722C18.021 10 18.6239 8.9844 18.1695 8.15143L15.4724 3.20664ZM14.375 3.8052L17.0722 8.75L11.6778 8.75L14.375 3.8052Z" fill="#F5F5F5"/>
</g>
</g>
</svg>
