<svg width="20" height="20" viewBox="0 0 20 20" fill="none" xmlns="http://www.w3.org/2000/svg">
<g id="Settings">
<path id="icon" fill-rule="evenodd" clip-rule="evenodd" d="M4.12986 5.16752L7.43778 5.56205L8.75011 2.5H11.2501L12.5624 5.56205L15.8702 5.16755L17.1202 7.33258L15.1246 10L17.1202 12.6675L15.8702 14.8325L12.5623 14.438L11.2501 17.5H8.75011L7.43783 14.4381L4.12991 14.8326L2.87991 12.6675L4.8755 10L2.87988 7.33255L4.12986 5.16752ZM8.5867 6.05445L9.57435 3.75H10.4258L11.4134 6.05445C11.6319 6.56406 12.1599 6.86891 12.7104 6.80325L15.1998 6.50636L15.6256 7.24377L14.1237 9.25123C13.7916 9.69519 13.7916 10.3049 14.1237 10.7488L15.6256 12.7563L15.1998 13.4937L12.7104 13.1968C12.1598 13.1312 11.6318 13.436 11.4134 13.9456L10.4259 16.25H9.57435L8.58675 13.9456C8.36834 13.436 7.84033 13.1312 7.28978 13.1969L4.80031 13.4938L4.37455 12.7563L5.8764 10.7488C6.20853 10.3049 6.20853 9.6952 5.8764 9.25125L4.37453 7.24374L4.80027 6.50634L7.28974 6.80325C7.84028 6.86891 8.36829 6.56407 8.5867 6.05445ZM9.99998 11.25C10.6903 11.25 11.25 10.6904 11.25 10C11.25 9.30964 10.6903 8.75 9.99998 8.75C9.30962 8.75 8.74998 9.30964 8.74998 10C8.74998 10.6904 9.30962 11.25 9.99998 11.25Z" fill="#F5F5F5"/>
</g>
</svg>
