<svg width="20" height="20" viewBox="0 0 20 20" fill="none" xmlns="http://www.w3.org/2000/svg">
<g id="Flows">
<g id="icon">
<path d="M11.25 7.5C12.6307 7.5 13.75 6.38071 13.75 5C13.75 3.61929 12.6307 2.5 11.25 2.5C9.86929 2.5 8.75 3.61929 8.75 5C8.75 6.38071 9.86929 7.5 11.25 7.5Z" fill="#F5F5F5"/>
<path d="M7.5 6.25C5.42893 6.25 3.75 7.92893 3.75 10C3.75 12.0711 5.42893 13.75 7.5 13.75H15.3661L12.6831 11.0669L13.5669 10.1831L17.7589 14.375L13.5669 18.5669L12.6831 17.6831L15.3661 15H7.5C4.73858 15 2.5 12.7614 2.5 10C2.5 7.23858 4.73858 5 7.5 5V6.25Z" fill="#F5F5F5"/>
</g>
</g>
</svg>
