<svg width="20" height="20" viewBox="0 0 20 20" fill="none" xmlns="http://www.w3.org/2000/svg">
<g id="WarningCircle">
<path id="icon" opacity="0.4" fill-rule="evenodd" clip-rule="evenodd" d="M10.625 2.5C6.82804 2.5 3.75 5.57804 3.75 9.375C3.75 13.172 6.82804 16.25 10.625 16.25C14.422 16.25 17.5 13.172 17.5 9.375C17.5 5.57804 14.422 2.5 10.625 2.5ZM2.5 9.375C2.5 4.88769 6.13769 1.25 10.625 1.25C15.1123 1.25 18.75 4.88769 18.75 9.375C18.75 13.8623 15.1123 17.5 10.625 17.5C6.13769 17.5 2.5 13.8623 2.5 9.375Z" fill="#F5F5F5"/>
<g id="icon_2">
<path d="M10 5V10H11.25V5H10Z" fill="#D9D9D9"/>
<path d="M10.625 13.75C11.3154 13.75 11.875 13.1904 11.875 12.5C11.875 11.8096 11.3154 11.25 10.625 11.25C9.93464 11.25 9.375 11.8096 9.375 12.5C9.375 13.1904 9.93464 13.75 10.625 13.75Z" fill="#D9D9D9"/>
</g>
</g>
</svg>
